<svg xmlns="http://www.w3.org/2000/svg" xmlns:xlink="http://www.w3.org/1999/xlink" width="40" zoomAndPan="magnify" viewBox="0 0 30 30.000001" height="40" preserveAspectRatio="xMidYMid meet" version="1.0"><defs><clipPath id="d3c88756de"><path d="M 9 0.695312 L 21 0.695312 L 21 14 L 9 14 Z M 9 0.695312 " clip-rule="nonzero"/></clipPath><clipPath id="051992055e"><path d="M 9 15 L 21 15 L 21 28.273438 L 9 28.273438 Z M 9 15 " clip-rule="nonzero"/></clipPath></defs><g clip-path="url(#d3c88756de)"><path fill="#0c70c2" d="M 17.128906 7.191406 C 17.128906 7.355469 16.996094 7.488281 16.832031 7.488281 L 15.523438 7.488281 L 15.523438 8.875 C 15.523438 9.039062 15.390625 9.171875 15.226562 9.171875 L 14.773438 9.171875 C 14.609375 9.171875 14.476562 9.039062 14.476562 8.875 L 14.476562 7.488281 L 13.167969 7.488281 C 13.003906 7.488281 12.871094 7.355469 12.871094 7.191406 L 12.871094 6.765625 C 12.871094 6.601562 13.003906 6.46875 13.167969 6.46875 L 14.476562 6.46875 L 14.476562 5.097656 C 14.476562 4.933594 14.609375 4.800781 14.773438 4.800781 L 15.226562 4.800781 C 15.390625 4.800781 15.523438 4.933594 15.523438 5.097656 L 15.523438 6.46875 L 16.832031 6.46875 C 16.996094 6.46875 17.128906 6.601562 17.128906 6.765625 Z M 20.273438 5.144531 L 16.425781 1.292969 C 16.042969 0.914062 15.539062 0.703125 15 0.703125 C 14.460938 0.703125 13.957031 0.914062 13.574219 1.292969 L 9.726562 5.144531 C 9.34375 5.523438 9.136719 6.03125 9.136719 6.566406 C 9.136719 7.105469 9.34375 7.613281 9.726562 7.992188 L 15 13.265625 L 20.273438 7.992188 C 20.65625 7.613281 20.863281 7.105469 20.863281 6.566406 C 20.863281 6.03125 20.65625 5.523438 20.273438 5.144531 " fill-opacity="1" fill-rule="nonzero"/></g><g clip-path="url(#051992055e)"><path fill="#0c70c2" d="M 16.660156 22.992188 C 16.777344 23.109375 16.777344 23.292969 16.660156 23.410156 L 16.359375 23.710938 C 16.304688 23.765625 16.230469 23.800781 16.148438 23.800781 C 16.070312 23.800781 15.996094 23.765625 15.941406 23.710938 L 15.015625 22.785156 L 14.035156 23.765625 C 13.976562 23.824219 13.898438 23.855469 13.824219 23.855469 C 13.75 23.855469 13.671875 23.824219 13.613281 23.765625 L 13.292969 23.445312 C 13.238281 23.390625 13.207031 23.316406 13.207031 23.234375 C 13.207031 23.160156 13.238281 23.082031 13.292969 23.027344 L 14.273438 22.046875 L 13.347656 21.121094 C 13.292969 21.066406 13.261719 20.988281 13.261719 20.910156 C 13.261719 20.832031 13.292969 20.757812 13.347656 20.703125 L 13.652344 20.402344 C 13.707031 20.34375 13.785156 20.3125 13.859375 20.3125 C 13.933594 20.3125 14.011719 20.34375 14.070312 20.402344 L 14.996094 21.328125 L 15.964844 20.355469 C 16.023438 20.296875 16.097656 20.269531 16.175781 20.269531 C 16.25 20.269531 16.328125 20.296875 16.382812 20.355469 L 16.703125 20.675781 C 16.761719 20.734375 16.792969 20.808594 16.792969 20.886719 C 16.792969 20.964844 16.761719 21.039062 16.703125 21.097656 L 15.734375 22.066406 Z M 20.273438 21.054688 L 15 15.78125 L 9.726562 21.054688 C 9.34375 21.433594 9.136719 21.941406 9.136719 22.480469 C 9.136719 23.015625 9.34375 23.523438 9.726562 23.902344 L 13.574219 27.753906 C 13.957031 28.132812 14.460938 28.34375 15 28.34375 C 15.539062 28.34375 16.042969 28.132812 16.425781 27.753906 L 20.273438 23.902344 C 20.65625 23.523438 20.863281 23.015625 20.863281 22.480469 C 20.863281 21.941406 20.65625 21.433594 20.273438 21.054688 " fill-opacity="1" fill-rule="nonzero"/></g><path fill="#0c70c2" d="M 24.429688 14.753906 C 24.429688 14.917969 24.296875 15.050781 24.132812 15.050781 L 20.9375 15.050781 C 20.777344 15.050781 20.644531 14.917969 20.644531 14.753906 L 20.644531 14.292969 C 20.644531 14.128906 20.777344 13.996094 20.9375 13.996094 L 24.132812 13.996094 C 24.296875 13.996094 24.429688 14.128906 24.429688 14.292969 Z M 28.230469 13.097656 L 24.378906 9.25 C 24 8.871094 23.492188 8.660156 22.953125 8.660156 C 22.414062 8.660156 21.910156 8.871094 21.53125 9.25 L 16.253906 14.523438 L 21.53125 19.796875 C 21.910156 20.179688 22.414062 20.386719 22.953125 20.386719 C 23.492188 20.386719 24 20.179688 24.378906 19.796875 L 28.230469 15.949219 C 29.015625 15.164062 29.015625 13.882812 28.230469 13.097656 " fill-opacity="1" fill-rule="nonzero"/><path fill="#0c70c2" d="M 8.847656 14.355469 L 6.078125 14.355469 C 5.914062 14.355469 5.78125 14.222656 5.78125 14.058594 L 5.78125 13.738281 C 5.78125 13.574219 5.914062 13.441406 6.078125 13.441406 L 8.847656 13.441406 C 9.011719 13.441406 9.140625 13.574219 9.140625 13.738281 L 9.140625 14.058594 C 9.140625 14.222656 9.011719 14.355469 8.847656 14.355469 Z M 9.140625 15.335938 C 9.140625 15.496094 9.011719 15.628906 8.847656 15.628906 L 6.078125 15.628906 C 5.914062 15.628906 5.78125 15.496094 5.78125 15.335938 L 5.78125 15.011719 C 5.78125 14.847656 5.914062 14.714844 6.078125 14.714844 L 8.847656 14.714844 C 9.011719 14.714844 9.140625 14.847656 9.140625 15.011719 Z M 8.46875 9.25 C 8.089844 8.871094 7.582031 8.660156 7.042969 8.660156 C 6.507812 8.660156 6 8.871094 5.617188 9.25 L 1.769531 13.097656 C 0.984375 13.882812 0.984375 15.164062 1.769531 15.949219 L 5.617188 19.796875 C 6 20.179688 6.507812 20.386719 7.042969 20.386719 C 7.582031 20.386719 8.089844 20.179688 8.46875 19.796875 L 13.742188 14.523438 L 8.46875 9.25 " fill-opacity="1" fill-rule="nonzero"/></svg>